<svg width="920" height="250" viewBox="0 0 920 250" fill="none" xmlns="http://www.w3.org/2000/svg">
<path fill-rule="evenodd" clip-rule="evenodd" d="M821.056 67.6542L856.425 86.644L821.056 105.634L785.686 86.644L821.056 67.6542Z" fill="#403FE9"/>
<path fill-rule="evenodd" clip-rule="evenodd" d="M821.055 0L919.43 52.8136L875.649 76.3264L821.055 47.0125L766.456 76.3264L722.674 52.8136L821.055 0Z" fill="#403FE9"/>
<path d="M177.872 247.882H154.694V231.954C148.691 244.384 137.518 250 123.943 250C100.21 250 88.4824 232.875 88.4824 205.438V152.866H111.661V205.254C111.661 220.629 117.663 229.652 130.13 229.652C140.842 229.652 154.601 220.814 154.601 193.929V152.866H177.872V247.882Z" fill="black"/>
<path d="M202.437 247.883V112.079H225.615V247.883H202.437Z" fill="black"/>
<path d="M252.58 247.883V105.634H275.758V247.883H252.58Z" fill="black"/>
<path d="M316.852 209.398C319.715 220.63 329.873 228.732 344.186 228.732C357.946 228.732 367.919 222.564 367.919 211.976C367.919 204.242 362.286 198.625 350.558 194.482L333.567 188.682C305.863 179.475 301.153 162.718 301.153 151.669C301.153 128.56 320.731 114.289 344.833 114.289C366.903 114.289 382.509 125.705 388.512 144.396L368.196 152.866C363.671 139.516 354.437 135.741 344.833 135.741C334.121 135.741 325.256 140.989 325.256 151.301C325.256 155.813 326.548 162.534 340.862 167.69L357.853 173.858C383.525 181.961 391.559 198.073 391.744 211.055C391.744 236.374 370.043 249.909 344.648 249.909C318.791 249.909 298.475 235.454 294.874 214.185L316.852 209.398Z" fill="black"/>
<path d="M576.341 152.866V247.974H553.163V233.611C546.421 243.923 534.509 250 520.565 250C492.307 250 473.838 227.811 473.838 200.006C473.838 173.121 491.569 150.748 520.75 150.748C533.586 150.748 545.406 155.996 553.163 166.86V152.866H576.341ZM525.274 230.665C541.065 230.665 553.717 219.985 553.717 201.203C553.717 182.789 541.804 170.175 524.72 170.175C507.175 170.175 497.202 183.893 497.202 200.19C497.202 217.131 507.914 230.665 525.274 230.665Z" fill="black"/>
<path d="M445.304 230.665C438.562 230.665 436.069 226.154 436.069 220.354V170.543H464.511V152.866H436.069V127.454H418.154L413.999 152.774H398.023V170.451H412.891V217.039C412.891 243.187 428.497 249.908 444.38 249.908C453.892 249.908 461.095 247.238 465.989 243.003L457.585 227.719C457.585 227.719 451.029 230.665 445.304 230.665Z" fill="black"/>
<path d="M0.570312 112.079V247.883H24.6724V188.773H49.6055L69.552 168.886H24.6724V133.255H83.4961V112.079H0.570312Z" fill="black"/>
<path d="M661.206 212.712C657.697 223.392 648.463 228.732 637.843 228.732C623.345 228.732 612.54 217.131 612.54 199.822C612.54 182.513 623.345 170.912 637.843 170.912C649.017 170.912 658.528 176.252 661.206 186.932H685.77C682.169 164.559 662.868 149.736 637.843 149.736C610.047 149.736 589.362 170.36 589.362 199.822C589.362 229.285 610.047 249.908 637.843 249.908C662.868 249.908 682.353 235.177 685.862 212.712H661.206Z" fill="black"/>
<path d="M782.723 247.883L744.778 196.415L777.93 155.628V152.774H752.258L722.338 189.326V112.079H699.16V247.883H722.338V201.847L755.759 247.883H782.723Z" fill="black"/>
</svg>
